<?xml version="1.0" encoding="UTF-8"?>
<svg version="1.1" xmlns="http://www.w3.org/2000/svg" width="70" height="70">
<path d="M0 0 C0 0.66 0 1.32 0 2 C0.52078125 2.22429688 1.0415625 2.44859375 1.578125 2.6796875 C4.90659609 4.49424109 7.77292576 6.78914175 10.75 9.125 C11.35199219 9.59292969 11.95398438 10.06085937 12.57421875 10.54296875 C14.05186616 11.69225007 15.52626005 12.84571235 17 14 C16.46414472 18.61526967 14.4200034 21.85754003 11.875 25.625 C11.05671371 26.86029442 10.23901286 28.09597685 9.421875 29.33203125 C9.01388672 29.9451416 8.60589844 30.55825195 8.18554688 31.18994141 C5.86672005 34.73025896 3.69668901 38.36658943 1.5078125 41.98828125 C0 44 0 44 -3 45 C-3.47308594 44.15179688 -3.94617188 43.30359375 -4.43359375 42.4296875 C-5.10062808 41.24426539 -5.76867802 40.05941443 -6.4375 38.875 C-6.7893335 38.25061035 -7.14116699 37.6262207 -7.50366211 36.98291016 C-9.42628245 33.61316076 -11.41455121 30.32005941 -13.5703125 27.09375 C-13.98611572 26.47000488 -14.40191895 25.84625977 -14.83032227 25.20361328 C-15.64014006 24.00180323 -16.46069368 22.80714531 -17.29272461 21.62060547 C-18.789242 19.39789949 -19.9562714 17.62992819 -20.14453125 14.91796875 C-18.30718566 11.83900395 -15.48718345 9.99469436 -12.625 7.9375 C-8.24512959 4.80480968 -8.24512959 4.80480968 -4.2734375 1.19140625 C-3 0 -3 0 0 0 Z " fill="#BEB2F8" transform="translate(36,12)"/>
<path d="M0 0 C0.33 0.66 0.66 1.32 1 2 C6.84099082 3.82859848 12.40882888 4.38690862 18.5 4.625 C19.73363281 4.68300781 19.73363281 4.68300781 20.9921875 4.7421875 C22.9944701 4.83531692 24.99720262 4.91868985 27 5 C26.25320402 10.06081162 24.8777744 14.26474281 23 19 C23.99 19 24.98 19 26 19 C24.50328459 23.49014624 22.16631659 27.47848764 19 31 C18.34 31 17.68 31 17 31 C16.52691406 30.15179688 16.05382812 29.30359375 15.56640625 28.4296875 C11.55111525 21.29105025 7.38841005 14.31787168 2.79516602 7.53271484 C0 3.31994314 0 3.31994314 0 0 Z " fill="#5C548A" transform="translate(16,26)"/>
<path d="M0 0 C0.33 0.66 0.66 1.32 1 2 C2.41190865 2.29463383 3.8297902 2.56090654 5.25 2.8125 C8.61696523 3.87434799 9.73497694 4.55521067 11.56640625 7.62890625 C12.88083173 11.05300522 13.97551567 14.47833512 15 18 C15.391875 19.23621094 15.78375 20.47242188 16.1875 21.74609375 C17.15782189 24.8221489 18.09320491 27.90473856 19 31 C18.34 31 17.68 31 17 31 C16.52691406 30.15179688 16.05382812 29.30359375 15.56640625 28.4296875 C11.55111525 21.29105025 7.38841005 14.31787168 2.79516602 7.53271484 C0 3.31994314 0 3.31994314 0 0 Z " fill="#1F1B35" transform="translate(16,26)"/>
<path d="M0 0 C0.99 0.33 1.98 0.66 3 1 C2.44986668 5.8766055 0.28501409 9.27700211 -2.3125 13.3125 C-2.70373047 13.95767578 -3.09496094 14.60285156 -3.49804688 15.26757812 C-4.67578125 17.11328125 -4.67578125 17.11328125 -7 20 C-8.32 20 -9.64 20 -11 20 C-11.33 20.99 -11.66 21.98 -12 23 C-11.36267571 17.10475031 -9.88046004 11.20105602 -7 6 C-4.35791624 3.93381977 -2.21614055 3.12564919 1 2 C0.67 1.34 0.34 0.68 0 0 Z " fill="#9994BA" transform="translate(50,25)"/>
<path d="M0 0 C-1.06546953 2.13093906 -2.29159719 3.36587557 -4 5 C-3.34 5.33 -2.68 5.66 -2 6 C-2.66 6 -3.32 6 -4 6 C-4 6.66 -4 7.32 -4 8 C-3.34 8 -2.68 8 -2 8 C-2 9.32 -2 10.64 -2 12 C-2.66 12 -3.32 12 -4 12 C-4.66 11.01 -5.32 10.02 -6 9 C-6.474375 9.804375 -6.94875 10.60875 -7.4375 11.4375 C-9 14 -9 14 -10 15 C-13.4375 15.1875 -13.4375 15.1875 -17 15 C-17.66 14.34 -18.32 13.68 -19 13 C-17.64455078 11.96939453 -17.64455078 11.96939453 -16.26171875 10.91796875 C-15.07022347 10.00792905 -13.87882214 9.09776634 -12.6875 8.1875 C-11.79514648 7.50977539 -11.79514648 7.50977539 -10.88476562 6.81835938 C-7.42347421 4.17168395 -7.42347421 4.17168395 -4.26953125 1.17578125 C-3 0 -3 0 0 0 Z " fill="#7F6BE7" transform="translate(36,12)"/>
<path d="M0 0 C0.33 0 0.66 0 1 0 C1.33 2.31 1.66 4.62 2 7 C2.66 7 3.32 7 4 7 C4 5.68 4 4.36 4 3 C3.34 3 2.68 3 2 3 C2 2.34 2 1.68 2 1 C2.99 1 3.98 1 5 1 C7.91033076 4.66486096 8.32136655 7.39374606 8 12 C6.37581255 12.08090971 4.75048255 12.13914995 3.125 12.1875 C1.76761719 12.23970703 1.76761719 12.23970703 0.3828125 12.29296875 C-0.79667969 12.14794922 -0.79667969 12.14794922 -2 12 C-2.66 11.01 -3.32 10.02 -4 9 C-3.2884375 7.88625 -3.2884375 7.88625 -2.5625 6.75 C-1.22130673 4.38949985 -0.487688 2.63351523 0 0 Z " fill="#A396EB" transform="translate(30,17)"/>
<path d="M0 0 C1.64630328 0.14042877 3.29204179 0.28749329 4.9375 0.4375 C6.31228516 0.55931641 6.31228516 0.55931641 7.71484375 0.68359375 C10 1 10 1 11 2 C12.60048202 2.12535652 14.20715928 2.17574787 15.8125 2.1875 C16.68519531 2.20167969 17.55789062 2.21585938 18.45703125 2.23046875 C21.10919085 1.99010406 22.72464999 1.34187309 25 0 C25 0.66 25 1.32 25 2 C26.65 2 28.3 2 30 2 C29.07421875 4.00390625 29.07421875 4.00390625 27 6 C23.91323968 6.4624984 20.91301326 6.18582486 17.8125 5.9375 C16.5740332 5.8765918 16.5740332 5.8765918 15.31054688 5.81445312 C9.69176331 5.44695191 5.17821416 4.20387662 0 2 C0 1.34 0 0.68 0 0 Z " fill="#DEDAF0" transform="translate(17,26)"/>
<path d="M0 0 C5.61 0 11.22 0 17 0 C17 0.99 17 1.98 17 3 C16.14535156 3.04898438 15.29070313 3.09796875 14.41015625 3.1484375 C13.30542969 3.22320312 12.20070313 3.29796875 11.0625 3.375 C9.96035156 3.44460937 8.85820313 3.51421875 7.72265625 3.5859375 C6.37494141 3.79089844 6.37494141 3.79089844 5 4 C4.67 4.66 4.34 5.32 4 6 C3.34 6 2.68 6 2 6 C1.34 4.02 0.68 2.04 0 0 Z " fill="#736F90" transform="translate(26,31)"/>
<path d="M0 0 C0.99 0 1.98 0 3 0 C2.46246904 6.18160604 0.45417612 11.326858 -2 17 C-2.66 17 -3.32 17 -4 17 C-4 15.02 -4 13.04 -4 11 C-3.01 11 -2.02 11 -1 11 C-1.20625 9.9275 -1.4125 8.855 -1.625 7.75 C-1.9876191 4.12380904 -1.98362069 2.91708924 0 0 Z " fill="#483F92" transform="translate(38,35)"/>
<path d="M0 0 C4.69159716 3.38772897 9.0299782 6.78185183 13 11 C12.01 11 11.02 11 10 11 C9.67 11.66 9.34 12.32 9 13 C7 11.6875 7 11.6875 5 10 C5 9.01 5 8.02 5 7 C2.525 6.01 2.525 6.01 0 5 C0 3.35 0 1.7 0 0 Z " fill="#938BBC" transform="translate(37,14)"/>
<path d="M0 0 C-0.26041667 2.01822917 -0.52083333 4.03645833 -0.78125 6.0546875 C-1.0372485 8.00498344 -1.0372485 8.00498344 -1 10 C-2.32 10 -3.64 10 -5 10 C-5 9.01 -5 8.02 -5 7 C-5.66 7 -6.32 7 -7 7 C-6.74438677 4.6568787 -6.40729228 2.32156597 -6 0 C-3.50907189 -1.24546405 -2.58919267 -0.7767578 0 0 Z " fill="#554C95" transform="translate(38,36)"/>
<path d="M0 0 C-1.06546953 2.13093906 -2.29159719 3.36587557 -4 5 C-3.34 5.33 -2.68 5.66 -2 6 C-2.66 6 -3.32 6 -4 6 C-4 6.66 -4 7.32 -4 8 C-3.34 8 -2.68 8 -2 8 C-2 9.32 -2 10.64 -2 12 C-2.66 12 -3.32 12 -4 12 C-4.66 10.35 -5.32 8.7 -6 7 C-6.78375 7.515625 -7.5675 8.03125 -8.375 8.5625 C-9.24125 9.036875 -10.1075 9.51125 -11 10 C-11.66 9.67 -12.32 9.34 -13 9 C-11.40423801 7.49106184 -9.79810089 5.99308924 -8.1875 4.5 C-7.29417969 3.6646875 -6.40085937 2.829375 -5.48046875 1.96875 C-3 0 -3 0 0 0 Z " fill="#7369A5" transform="translate(36,12)"/>
<path d="M0 0 C0.33 0 0.66 0 1 0 C1.33 2.31 1.66 4.62 2 7 C2.66 7 3.32 7 4 7 C4 7.99 4 8.98 4 10 C1.69 10.33 -0.62 10.66 -3 11 C-3 8.04725901 -2.56108169 6.50941597 -1.5 3.8125 C-1.2215625 3.09707031 -0.943125 2.38164062 -0.65625 1.64453125 C-0.33140625 0.83048828 -0.33140625 0.83048828 0 0 Z " fill="#AC9DF9" transform="translate(30,17)"/>
<path d="M0 0 C1.65 0.33 3.3 0.66 5 1 C4.34 2.65 3.68 4.3 3 6 C1.68 6 0.36 6 -1 6 C-1.33 6.99 -1.66 7.98 -2 9 C-1.51421457 5.87709365 -1.0013988 3.00419641 0 0 Z " fill="#756BC5" transform="translate(40,39)"/>
<path d="M0 0 C0.99 0 1.98 0 3 0 C1.68775452 3.93673644 0.08089673 6.22719294 -3 9 C-3.33 8.34 -3.66 7.68 -4 7 C-3.0625 4.875 -3.0625 4.875 -2 3 C-1.34 3 -0.68 3 0 3 C0 2.01 0 1.02 0 0 Z " fill="#655CA4" transform="translate(39,45)"/>
<path d="M0 0 C0.99 0 1.98 0 3 0 C2.1654738 2.50357861 1.20628008 4.66785852 0 7 C-0.99 7 -1.98 7 -3 7 C-2.38722388 4.03824877 -1.74627478 2.61941217 0 0 Z " fill="#9186EA" transform="translate(44,33)"/>
<path d="M0 0 C1.9375 0.375 1.9375 0.375 4 1 C4.33 1.66 4.66 2.32 5 3 C2.25 4.1875 2.25 4.1875 -1 5 C-3.375 3.625 -3.375 3.625 -5 2 C-3.35 2 -1.7 2 0 2 C0 1.34 0 0.68 0 0 Z " fill="#DFDBF7" transform="translate(47,25)"/>
<path d="M0 0 C0.66 0.33 1.32 0.66 2 1 C2 1.99 2 2.98 2 4 C2.99 4.33 3.98 4.66 5 5 C1.625 5.125 1.625 5.125 -2 5 C-2.66 4.34 -3.32 3.68 -4 3 C-2.68 2.01 -1.36 1.02 0 0 Z " fill="#685AB4" transform="translate(21,22)"/>
<path d="M0 0 C0.99 0.33 1.98 0.66 3 1 C3.33 1.99 3.66 2.98 4 4 C3.67 4.66 3.34 5.32 3 6 C0.525 5.01 0.525 5.01 -2 4 C-1.34 2.68 -0.68 1.36 0 0 Z " fill="#EEEBF4" transform="translate(34,13)"/>
<path d="M0 0 C2.22825644 2.22825644 2.69239369 3.65761628 3.625 6.625 C3.88539062 7.44226562 4.14578125 8.25953125 4.4140625 9.1015625 C4.60742188 9.72804688 4.80078125 10.35453125 5 11 C4.34 11 3.68 11 3 11 C2.30034557 9.73581754 1.61565237 8.46334598 0.9375 7.1875 C0.55464844 6.47980469 0.17179687 5.77210937 -0.22265625 5.04296875 C-1 3 -1 3 0 0 Z " fill="#161623" transform="translate(30,46)"/>
<path d="M0 0 C2.97 0.33 5.94 0.66 9 1 C8.01 2.485 8.01 2.485 7 4 C4.69 3.34 2.38 2.68 0 2 C0 1.34 0 0.68 0 0 Z " fill="#A69AE5" transform="translate(17,26)"/>
<path d="M0 0 C0.99 0 1.98 0 3 0 C1.8141763 3.37503669 0.72426311 5.64722731 -2 8 C-3 5 -3 5 -1.75 2.3125 C-1.1725 1.549375 -0.595 0.78625 0 0 Z " fill="#574EA2" transform="translate(47,32)"/>
<path d="M0 0 C0.33 0.66 0.66 1.32 1 2 C2.88764903 2.68472665 2.88764903 2.68472665 5.0625 3.125 C5.79597656 3.29257812 6.52945312 3.46015625 7.28515625 3.6328125 C7.85105469 3.75398438 8.41695312 3.87515625 9 4 C8.01 4.66 7.02 5.32 6 6 C3.375 5.375 3.375 5.375 1 4 C0.1875 1.875 0.1875 1.875 0 0 Z " fill="#292444" transform="translate(16,26)"/>
<path d="M0 0 C1.7074998 1.28062485 3.37373596 2.61767557 5 4 C5 4.66 5 5.32 5 6 C3.35 5.67 1.7 5.34 0 5 C0 3.35 0 1.7 0 0 Z " fill="#A09BB6" transform="translate(37,14)"/>
</svg>
